<svg width="1193" height="868" viewBox="0 0 1193 868" fill="none" xmlns="http://www.w3.org/2000/svg">
<rect width="1193" height="868" fill="white"/>
<path d="M275.36 378.85H317.903C362.239 378.85 384.407 366.136 384.407 340.708V253.177C384.407 227.749 362.076 215.035 317.414 215.035C273.078 215.035 250.91 227.749 250.91 253.177V541.198C250.91 548.696 244.39 552.445 231.35 552.445C218.31 552.445 211.79 548.696 211.79 541.198V258.067C211.79 231.009 221.407 211.449 240.641 199.387C259.875 186.999 285.466 180.805 317.414 180.805C349.362 180.805 374.953 186.999 394.187 199.387C413.747 211.449 423.527 231.009 423.527 258.067V335.818C423.527 362.876 413.91 382.599 394.676 394.987C375.442 407.049 349.851 413.08 317.903 413.08H275.36C268.84 413.08 265.58 407.375 265.58 395.965C265.58 384.555 268.84 378.85 275.36 378.85ZM555.695 196.942V541.198C555.695 548.696 549.175 552.445 536.135 552.445C523.095 552.445 516.575 548.696 516.575 541.198V196.942C516.575 189.444 523.095 185.695 536.135 185.695C549.175 185.695 555.695 189.444 555.695 196.942Z" fill="black"/>
<path d="M192.929 692.015C192.209 689.945 191.849 687.29 191.849 684.05C191.849 680.81 192.209 678.2 192.929 676.22C193.649 674.15 194.909 672.44 196.709 671.09C198.599 669.74 200.444 668.75 202.244 668.12C204.044 667.4 206.744 666.545 210.344 665.555L248.549 655.16C250.349 655.16 251.249 656.87 251.249 660.29C251.249 663.71 250.214 665.6 248.144 665.96L211.829 676.085C207.149 677.345 204.224 678.425 203.054 679.325C201.884 680.225 201.299 681.8 201.299 684.05C201.299 686.3 201.884 687.875 203.054 688.775C204.224 689.675 207.149 690.755 211.829 692.015L248.144 702.14C250.214 702.5 251.249 704.39 251.249 707.81C251.249 711.23 250.349 712.94 248.549 712.94L210.344 702.545C206.744 701.555 204.044 700.745 202.244 700.115C200.444 699.395 198.599 698.36 196.709 697.01C194.909 695.66 193.649 693.995 192.929 692.015ZM391.192 716.045V700.79C391.192 697.82 390.022 695.66 387.682 694.31C385.342 692.96 381.292 691.61 375.532 690.26L363.517 687.56C358.027 686.3 353.887 684.905 351.097 683.375C345.157 680.225 342.187 673.7 342.187 663.8V653.405C342.187 645.935 344.842 640.535 350.152 637.205C355.552 633.785 362.662 632.075 371.482 632.075C380.302 632.075 387.367 633.785 392.677 637.205C397.987 640.535 400.642 645.935 400.642 653.405V659.345C400.642 661.415 398.842 662.45 395.242 662.45C391.642 662.45 389.842 661.415 389.842 659.345V652.055C389.842 645.035 383.677 641.525 371.347 641.525C359.107 641.525 352.987 645.035 352.987 652.055V663.53C352.987 668.48 353.707 671.9 355.147 673.79C356.677 675.59 359.467 676.94 363.517 677.84L375.532 680.54C384.172 682.43 389.077 683.735 390.247 684.455C391.507 685.085 392.947 685.805 394.567 686.615C396.187 687.425 397.267 688.28 397.807 689.18C398.437 689.99 399.157 691.025 399.967 692.285C401.317 694.355 401.992 697.55 401.992 701.87V714.695C401.992 722.075 399.022 727.475 393.082 730.895C387.232 734.315 379.807 736.025 370.807 736.025C361.897 736.025 354.562 734.315 348.802 730.895C343.132 727.475 340.297 722.075 340.297 714.695V708.755C340.297 706.685 342.097 705.65 345.697 705.65C349.297 705.65 351.097 706.685 351.097 708.755V716.045C351.097 719.735 352.942 722.435 356.632 724.145C360.412 725.765 365.137 726.575 370.807 726.575C376.567 726.575 381.382 725.72 385.252 724.01C389.212 722.3 391.192 719.645 391.192 716.045ZM512.717 686.75H524.462C536.702 686.75 542.822 683.24 542.822 676.22V652.055C542.822 645.035 536.657 641.525 524.327 641.525C512.087 641.525 505.967 645.035 505.967 652.055V731.57C505.967 733.64 504.167 734.675 500.567 734.675C496.967 734.675 495.167 733.64 495.167 731.57V653.405C495.167 645.935 497.822 640.535 503.132 637.205C508.442 633.785 515.507 632.075 524.327 632.075C533.147 632.075 540.212 633.785 545.522 637.205C550.922 640.535 553.622 645.935 553.622 653.405V674.87C553.622 682.34 550.967 687.785 545.657 691.205C540.347 694.535 533.282 696.2 524.462 696.2H512.717C510.917 696.2 510.017 694.625 510.017 691.475C510.017 688.325 510.917 686.75 512.717 686.75ZM707.965 653.405V731.57C707.965 733.64 706.165 734.675 702.565 734.675C698.965 734.675 697.165 733.64 697.165 731.57V694.985H656.26V731.57C656.26 733.64 654.46 734.675 650.86 734.675C647.26 734.675 645.46 733.64 645.46 731.57V653.405C645.46 648.365 646.945 644.225 649.915 640.985C652.885 637.655 656.665 635.36 661.255 634.1C665.845 632.75 671.245 632.075 677.455 632.075C697.795 632.075 707.965 639.185 707.965 653.405ZM656.26 652.055V685.535H697.165V652.055C697.165 645.035 690.325 641.525 676.645 641.525C663.055 641.525 656.26 645.035 656.26 652.055ZM817.263 643.55H815.913V731.57C815.913 733.64 814.113 734.675 810.513 734.675C806.913 734.675 805.113 733.64 805.113 731.57V644.225C805.113 640.265 805.563 637.61 806.463 636.26C807.453 634.82 809.703 634.1 813.213 634.1H816.183C822.483 634.1 826.713 634.82 828.873 636.26C831.033 637.7 832.833 641.3 834.273 647.06L851.823 717.935C852.633 721.175 853.398 723.2 854.118 724.01C854.838 724.82 856.638 725.225 859.518 725.225H860.868V637.205C860.868 635.135 862.668 634.1 866.268 634.1C869.868 634.1 871.668 635.135 871.668 637.205V724.55C871.668 728.51 871.173 731.21 870.183 732.65C869.283 734 867.078 734.675 863.568 734.675H860.598C854.298 734.675 850.068 733.955 847.908 732.515C845.748 731.075 843.948 727.475 842.508 721.715L824.958 650.84C824.148 647.6 823.383 645.575 822.663 644.765C821.943 643.955 820.143 643.55 817.263 643.55ZM1023.12 676.22C1023.84 678.2 1024.2 680.81 1024.2 684.05C1024.2 687.29 1023.84 689.945 1023.12 692.015C1022.4 693.995 1021.1 695.66 1019.21 697.01C1017.41 698.36 1015.61 699.395 1013.81 700.115C1012.01 700.745 1009.31 701.555 1005.71 702.545L967.503 712.94C965.703 712.94 964.803 711.23 964.803 707.81C964.803 704.39 965.838 702.5 967.908 702.14L1004.22 692.015C1008.9 690.755 1011.83 689.675 1013 688.775C1014.17 687.875 1014.75 686.3 1014.75 684.05C1014.75 681.8 1014.17 680.225 1013 679.325C1011.83 678.425 1008.9 677.345 1004.22 676.085L967.908 665.96C965.838 665.6 964.803 663.71 964.803 660.29C964.803 656.87 965.703 655.16 967.503 655.16L1005.71 665.555C1009.31 666.545 1012.01 667.4 1013.81 668.12C1015.61 668.75 1017.41 669.74 1019.21 671.09C1021.1 672.44 1022.4 674.15 1023.12 676.22Z" fill="black"/>
<ellipse cx="812.5" cy="364" rx="158.5" ry="158" fill="black"/>
<mask id="path-4-inside-1_4_593" fill="white">
<path fill-rule="evenodd" clip-rule="evenodd" d="M834.732 183.553C826.836 171.494 809.164 171.494 801.268 183.553L800.348 184.957C794.029 194.607 780.879 196.926 771.641 190.019L770.296 189.014C758.752 180.383 742.146 186.428 738.85 200.459L738.467 202.093C735.829 213.323 724.265 220 713.221 216.669L711.614 216.184C697.815 212.022 684.277 223.382 685.979 237.694L686.178 239.361C687.54 250.815 678.957 261.045 667.44 261.692L665.764 261.786C651.373 262.595 642.537 277.9 649.032 290.767L649.788 292.265C654.986 302.563 650.419 315.111 639.818 319.658L638.276 320.32C625.029 326.002 621.961 343.406 632.465 353.275L633.688 354.425C642.094 362.323 642.094 375.677 633.688 383.575L632.465 384.725C621.961 394.595 625.029 411.998 638.276 417.68L639.818 418.342C650.419 422.889 654.986 435.437 649.788 445.735L649.032 447.233C642.537 460.1 651.373 475.405 665.764 476.214L667.44 476.308C678.957 476.955 687.54 487.185 686.178 498.639L685.979 500.306C684.277 514.618 697.815 525.978 711.614 521.816L713.221 521.331C724.265 518 735.829 524.677 738.467 535.907L738.85 537.541C742.146 551.572 758.752 557.617 770.296 548.986L771.641 547.981C780.879 541.074 794.029 543.393 800.348 553.043L801.268 554.447C805.216 560.476 811.608 563.491 818 563.491C817.833 563.491 817.667 563.489 817.5 563.485L817.5 368.5H996.013C996.141 363.355 998.241 358.25 1002.31 354.425L1003.54 353.275C1014.04 343.405 1010.97 326.002 997.724 320.32L996.182 319.658C985.581 315.111 981.014 302.563 986.212 292.265L986.968 290.767C993.463 277.9 984.627 262.595 970.236 261.786L968.56 261.692C957.043 261.045 948.46 250.815 949.822 239.361L950.021 237.694C951.723 223.382 938.185 212.022 924.386 216.184L922.779 216.669C911.735 220 900.171 213.323 897.533 202.093L897.15 200.459C893.854 186.428 877.248 180.383 865.704 189.014L864.359 190.019C855.121 196.926 841.97 194.607 835.651 184.957L834.732 183.553Z"/>
</mask>
<path fill-rule="evenodd" clip-rule="evenodd" d="M834.732 183.553C826.836 171.494 809.164 171.494 801.268 183.553L800.348 184.957C794.029 194.607 780.879 196.926 771.641 190.019L770.296 189.014C758.752 180.383 742.146 186.428 738.85 200.459L738.467 202.093C735.829 213.323 724.265 220 713.221 216.669L711.614 216.184C697.815 212.022 684.277 223.382 685.979 237.694L686.178 239.361C687.54 250.815 678.957 261.045 667.44 261.692L665.764 261.786C651.373 262.595 642.537 277.9 649.032 290.767L649.788 292.265C654.986 302.563 650.419 315.111 639.818 319.658L638.276 320.32C625.029 326.002 621.961 343.406 632.465 353.275L633.688 354.425C642.094 362.323 642.094 375.677 633.688 383.575L632.465 384.725C621.961 394.595 625.029 411.998 638.276 417.68L639.818 418.342C650.419 422.889 654.986 435.437 649.788 445.735L649.032 447.233C642.537 460.1 651.373 475.405 665.764 476.214L667.44 476.308C678.957 476.955 687.54 487.185 686.178 498.639L685.979 500.306C684.277 514.618 697.815 525.978 711.614 521.816L713.221 521.331C724.265 518 735.829 524.677 738.467 535.907L738.85 537.541C742.146 551.572 758.752 557.617 770.296 548.986L771.641 547.981C780.879 541.074 794.029 543.393 800.348 553.043L801.268 554.447C805.216 560.476 811.608 563.491 818 563.491C817.833 563.491 817.667 563.489 817.5 563.485L817.5 368.5H996.013C996.141 363.355 998.241 358.25 1002.31 354.425L1003.54 353.275C1014.04 343.405 1010.97 326.002 997.724 320.32L996.182 319.658C985.581 315.111 981.014 302.563 986.212 292.265L986.968 290.767C993.463 277.9 984.627 262.595 970.236 261.786L968.56 261.692C957.043 261.045 948.46 250.815 949.822 239.361L950.021 237.694C951.723 223.382 938.185 212.022 924.386 216.184L922.779 216.669C911.735 220 900.171 213.323 897.533 202.093L897.15 200.459C893.854 186.428 877.248 180.383 865.704 189.014L864.359 190.019C855.121 196.926 841.97 194.607 835.651 184.957L834.732 183.553Z" fill="black"/>
<path d="M801.268 183.553L797.085 180.814L797.085 180.814L801.268 183.553ZM834.732 183.553L830.549 186.292L830.549 186.292L834.732 183.553ZM800.348 184.957L804.531 187.696L804.531 187.696L800.348 184.957ZM771.641 190.019L774.635 186.015L774.635 186.015L771.641 190.019ZM770.296 189.014L767.302 193.019L767.302 193.019L770.296 189.014ZM738.85 200.459L743.718 201.603L743.718 201.603L738.85 200.459ZM738.467 202.093L733.599 200.95L733.599 200.95L738.467 202.093ZM713.221 216.669L714.665 211.882L714.665 211.882L713.221 216.669ZM711.614 216.184L710.171 220.971L710.171 220.971L711.614 216.184ZM685.979 237.694L690.944 237.104L690.944 237.104L685.979 237.694ZM686.178 239.361L691.143 238.771L691.143 238.771L686.178 239.361ZM667.44 261.692L667.159 256.7L667.159 256.7L667.44 261.692ZM665.764 261.786L666.045 266.778L666.045 266.778L665.764 261.786ZM649.032 290.767L644.568 293.02L644.568 293.02L649.032 290.767ZM649.788 292.265L654.252 290.012L654.252 290.012L649.788 292.265ZM639.818 319.658L637.847 315.063L637.847 315.063L639.818 319.658ZM638.276 320.32L640.247 324.915L640.247 324.915L638.276 320.32ZM632.465 353.275L629.041 356.919L629.041 356.919L632.465 353.275ZM633.688 354.425L630.264 358.069L630.264 358.069L633.688 354.425ZM633.688 383.575L637.112 387.219L637.112 387.219L633.688 383.575ZM632.465 384.725L629.041 381.081L629.041 381.081L632.465 384.725ZM638.276 417.68L640.247 413.085L640.247 413.085L638.276 417.68ZM639.818 418.342L637.847 422.937L637.847 422.937L639.818 418.342ZM649.788 445.735L645.325 443.482L645.325 443.482L649.788 445.735ZM649.032 447.233L653.496 449.486L653.496 449.486L649.032 447.233ZM665.764 476.214L665.484 481.206L665.484 481.206L665.764 476.214ZM667.44 476.308L667.72 471.316L667.72 471.316L667.44 476.308ZM686.178 498.639L681.213 498.048L681.213 498.048L686.178 498.639ZM685.979 500.306L690.944 500.896L690.944 500.896L685.979 500.306ZM711.614 521.816L713.058 526.603L713.058 526.603L711.614 521.816ZM713.221 521.331L711.778 516.544L711.778 516.544L713.221 521.331ZM738.467 535.907L743.334 534.763L743.334 534.763L738.467 535.907ZM738.85 537.541L743.718 536.397L743.718 536.397L738.85 537.541ZM770.296 548.986L767.302 544.981L767.302 544.981L770.296 548.986ZM771.641 547.981L774.635 551.986L774.635 551.985L771.641 547.981ZM800.348 553.043L804.531 550.304L804.531 550.304L800.348 553.043ZM801.268 554.447L797.085 557.186L797.085 557.186L801.268 554.447ZM817.5 563.485L812.5 563.485L812.5 568.364L817.377 568.483L817.5 563.485ZM817.5 368.5V363.5H812.5L812.5 368.5L817.5 368.5ZM996.013 368.5V373.5H1000.89L1001.01 368.624L996.013 368.5ZM1002.31 354.425L998.888 350.781L998.888 350.781L1002.31 354.425ZM1003.54 353.275L1006.96 356.919L1006.96 356.919L1003.54 353.275ZM997.724 320.32L995.753 324.915L995.753 324.915L997.724 320.32ZM996.182 319.658L998.153 315.063L998.153 315.063L996.182 319.658ZM986.212 292.265L990.675 294.518L990.675 294.518L986.212 292.265ZM986.968 290.767L982.504 288.514L982.504 288.514L986.968 290.767ZM970.236 261.786L969.955 266.778L969.955 266.778L970.236 261.786ZM968.56 261.692L968.841 256.7L968.841 256.7L968.56 261.692ZM949.822 239.361L954.787 239.952L954.787 239.952L949.822 239.361ZM950.021 237.694L954.986 238.285L954.986 238.285L950.021 237.694ZM924.386 216.184L925.829 220.971L925.829 220.971L924.386 216.184ZM922.779 216.669L921.335 211.882L921.335 211.882L922.779 216.669ZM897.533 202.093L902.401 200.95L902.401 200.95L897.533 202.093ZM897.15 200.459L892.282 201.603L892.282 201.603L897.15 200.459ZM865.704 189.014L868.698 193.019L868.698 193.019L865.704 189.014ZM864.359 190.019L861.365 186.015L861.365 186.015L864.359 190.019ZM835.651 184.957L839.835 182.218L839.834 182.218L835.651 184.957ZM805.451 186.292C811.373 177.248 824.627 177.248 830.549 186.292L838.915 180.814C829.045 165.741 806.955 165.741 797.085 180.814L805.451 186.292ZM804.531 187.696L805.451 186.292L797.085 180.814L796.165 182.218L804.531 187.696ZM768.647 194.024C780.195 202.657 796.633 199.759 804.531 187.696L796.165 182.218C791.426 189.456 781.563 191.195 774.635 186.015L768.647 194.024ZM767.302 193.019L768.647 194.024L774.635 186.015L773.29 185.009L767.302 193.019ZM743.718 201.603C746.189 191.079 758.644 186.546 767.302 193.019L773.29 185.009C758.86 174.221 738.102 181.777 733.983 199.316L743.718 201.603ZM743.334 203.237L743.718 201.603L733.983 199.316L733.599 200.95L743.334 203.237ZM711.778 221.456C725.582 225.619 740.037 217.273 743.334 203.237L733.599 200.95C731.621 209.372 722.948 214.38 714.665 211.882L711.778 221.456ZM710.171 220.971L711.778 221.456L714.665 211.882L713.058 211.397L710.171 220.971ZM690.944 237.104C689.668 226.369 699.821 217.85 710.171 220.971L713.058 211.397C695.809 206.195 678.886 220.394 681.014 238.285L690.944 237.104ZM691.143 238.771L690.944 237.104L681.014 238.285L681.213 239.952L691.143 238.771ZM667.72 266.684C682.117 265.875 692.846 253.088 691.143 238.771L681.213 239.952C682.234 248.542 675.797 256.214 667.159 256.7L667.72 266.684ZM666.045 266.778L667.72 266.684L667.159 256.7L665.484 256.794L666.045 266.778ZM653.496 288.514C648.624 278.863 655.252 267.385 666.045 266.778L665.484 256.794C647.495 257.805 636.45 276.936 644.568 293.02L653.496 288.514ZM654.252 290.012L653.496 288.514L644.568 293.02L645.325 294.518L654.252 290.012ZM641.789 324.253C655.04 318.569 660.749 302.884 654.252 290.012L645.325 294.518C649.223 302.241 645.798 311.652 637.847 315.063L641.789 324.253ZM640.247 324.915L641.789 324.253L637.847 315.063L636.305 315.725L640.247 324.915ZM635.889 349.632C628.01 342.229 630.312 329.176 640.247 324.915L636.305 315.724C619.747 322.827 615.911 344.582 629.041 356.919L635.889 349.632ZM637.112 350.781L635.889 349.632L629.041 356.919L630.264 358.069L637.112 350.781ZM637.112 387.219C647.62 377.346 647.62 360.654 637.112 350.781L630.264 358.069C636.569 363.993 636.569 374.007 630.264 379.932L637.112 387.219ZM635.889 388.369L637.112 387.219L630.264 379.932L629.041 381.081L635.889 388.369ZM640.247 413.085C630.312 408.824 628.01 395.771 635.889 388.369L629.041 381.081C615.911 393.418 619.747 415.173 636.305 422.276L640.247 413.085ZM641.789 413.747L640.247 413.085L636.305 422.276L637.847 422.937L641.789 413.747ZM654.252 447.988C660.749 435.116 655.04 419.431 641.789 413.747L637.847 422.937C645.798 426.348 649.223 435.759 645.325 443.482L654.252 447.988ZM653.496 449.486L654.252 447.988L645.325 443.482L644.568 444.98L653.496 449.486ZM666.045 471.222C655.252 470.615 648.624 459.137 653.496 449.486L644.568 444.98C636.45 461.064 647.495 480.195 665.484 481.206L666.045 471.222ZM667.72 471.316L666.045 471.222L665.484 481.206L667.159 481.3L667.72 471.316ZM691.143 499.229C692.846 484.912 682.117 472.125 667.72 471.316L667.159 481.3C675.797 481.786 682.234 489.458 681.213 498.048L691.143 499.229ZM690.944 500.896L691.143 499.229L681.213 498.048L681.014 499.715L690.944 500.896ZM710.171 517.029C699.821 520.15 689.668 511.631 690.944 500.896L681.014 499.715C678.886 517.606 695.809 531.805 713.058 526.603L710.171 517.029ZM711.778 516.544L710.171 517.029L713.058 526.603L714.665 526.118L711.778 516.544ZM743.334 534.763C740.037 520.727 725.582 512.381 711.778 516.544L714.665 526.118C722.948 523.62 731.621 528.628 733.599 537.05L743.334 534.763ZM743.718 536.397L743.334 534.763L733.599 537.05L733.983 538.684L743.718 536.397ZM767.302 544.981C758.644 551.454 746.189 546.921 743.718 536.397L733.983 538.684C738.102 556.223 758.86 563.779 773.29 552.991L767.302 544.981ZM768.647 543.976L767.302 544.981L773.29 552.991L774.635 551.986L768.647 543.976ZM804.531 550.304C796.633 538.241 780.195 535.343 768.647 543.976L774.635 551.985C781.563 546.805 791.426 548.544 796.165 555.782L804.531 550.304ZM805.451 551.708L804.531 550.304L796.165 555.782L797.085 557.186L805.451 551.708ZM818 558.491C813.18 558.491 808.414 556.234 805.451 551.708L797.085 557.186C802.017 564.719 810.036 568.491 818 568.491V558.491ZM818 558.491C817.875 558.491 817.749 558.489 817.623 558.486L817.377 568.483C817.584 568.488 817.792 568.491 818 568.491V558.491ZM822.5 563.485L822.5 368.5L812.5 368.5L812.5 563.485L822.5 563.485ZM817.5 373.5H996.013V363.5H817.5V373.5ZM998.888 350.781C993.801 355.561 991.174 361.952 991.015 368.376L1001.01 368.624C1001.11 364.758 1002.68 360.939 1005.74 358.068L998.888 350.781ZM1000.11 349.631L998.888 350.781L1005.74 358.068L1006.96 356.919L1000.11 349.631ZM995.753 324.915C1005.69 329.176 1007.99 342.229 1000.11 349.631L1006.96 356.919C1020.09 344.582 1016.25 322.827 999.695 315.724L995.753 324.915ZM994.211 324.253L995.753 324.915L999.695 315.724L998.153 315.063L994.211 324.253ZM981.748 290.012C975.251 302.884 980.959 318.569 994.211 324.253L998.153 315.063C990.202 311.652 986.777 302.241 990.675 294.518L981.748 290.012ZM982.504 288.514L981.748 290.012L990.675 294.518L991.431 293.02L982.504 288.514ZM969.955 266.778C980.748 267.385 987.376 278.863 982.504 288.514L991.431 293.02C999.55 276.936 988.505 257.805 970.516 256.794L969.955 266.778ZM968.279 266.684L969.955 266.778L970.516 256.794L968.841 256.7L968.279 266.684ZM944.857 238.771C943.154 253.088 953.883 265.875 968.279 266.684L968.841 256.7C960.203 256.214 953.765 248.542 954.787 239.952L944.857 238.771ZM945.056 237.104L944.857 238.771L954.787 239.952L954.986 238.285L945.056 237.104ZM925.829 220.971C936.179 217.85 946.332 226.369 945.056 237.104L954.986 238.285C957.114 220.394 940.191 206.195 922.942 211.397L925.829 220.971ZM924.222 221.456L925.829 220.971L922.942 211.397L921.335 211.882L924.222 221.456ZM892.666 203.237C895.962 217.273 910.418 225.619 924.222 221.456L921.335 211.882C913.052 214.38 904.379 209.372 902.401 200.95L892.666 203.237ZM892.282 201.603L892.666 203.237L902.401 200.95L902.017 199.316L892.282 201.603ZM868.698 193.019C877.355 186.546 889.81 191.079 892.282 201.603L902.017 199.316C897.898 181.777 877.14 174.221 862.71 185.01L868.698 193.019ZM867.353 194.024L868.698 193.019L862.71 185.01L861.365 186.015L867.353 194.024ZM831.468 187.696C839.367 199.759 855.805 202.657 867.353 194.024L861.365 186.015C854.437 191.195 844.574 189.456 839.835 182.218L831.468 187.696ZM830.549 186.292L831.468 187.696L839.834 182.218L838.915 180.814L830.549 186.292Z" fill="black" mask="url(#path-4-inside-1_4_593)"/>
<mask id="path-6-inside-2_4_593" fill="white">
<path fill-rule="evenodd" clip-rule="evenodd" d="M1021.51 392C1021.38 397.478 1023.48 403.002 1027.81 407.075L1029.04 408.225C1039.54 418.094 1036.47 435.498 1023.22 441.18L1021.68 441.842C1011.08 446.389 1006.51 458.937 1011.71 469.235L1012.47 470.733C1018.96 483.6 1010.13 498.905 995.736 499.714L994.06 499.808C982.543 500.455 973.96 510.685 975.322 522.139L975.521 523.806C977.223 538.118 963.685 549.478 949.886 545.316L948.279 544.831C937.235 541.5 925.671 548.177 923.033 559.407L922.65 561.041C919.354 575.072 902.748 581.117 891.204 572.486L889.859 571.481C880.621 564.574 867.471 566.893 861.152 576.543L860.232 577.947C856.181 584.133 849.557 587.146 843 586.985L843 392L1021.51 392Z"/>
</mask>
<path fill-rule="evenodd" clip-rule="evenodd" d="M1021.51 392C1021.38 397.478 1023.48 403.002 1027.81 407.075L1029.04 408.225C1039.54 418.094 1036.47 435.498 1023.22 441.18L1021.68 441.842C1011.08 446.389 1006.51 458.937 1011.71 469.235L1012.47 470.733C1018.96 483.6 1010.13 498.905 995.736 499.714L994.06 499.808C982.543 500.455 973.96 510.685 975.322 522.139L975.521 523.806C977.223 538.118 963.685 549.478 949.886 545.316L948.279 544.831C937.235 541.5 925.671 548.177 923.033 559.407L922.65 561.041C919.354 575.072 902.748 581.117 891.204 572.486L889.859 571.481C880.621 564.574 867.471 566.893 861.152 576.543L860.232 577.947C856.181 584.133 849.557 587.146 843 586.985L843 392L1021.51 392Z" fill="black"/>
<path d="M1021.51 392L1026.51 392.124L1026.64 387L1021.51 387V392ZM1027.81 407.075L1024.39 410.719L1024.39 410.719L1027.81 407.075ZM1029.04 408.225L1032.46 404.581L1032.46 404.581L1029.04 408.225ZM1023.22 441.18L1021.25 436.585L1021.25 436.585L1023.22 441.18ZM1021.68 441.842L1023.65 446.437L1023.65 446.437L1021.68 441.842ZM1011.71 469.235L1007.25 471.488L1007.25 471.488L1011.71 469.235ZM1012.47 470.733L1016.93 468.48L1016.93 468.48L1012.47 470.733ZM995.736 499.714L996.016 504.706L996.016 504.706L995.736 499.714ZM994.06 499.808L993.78 494.816L993.78 494.816L994.06 499.808ZM975.322 522.139L970.357 522.729L970.357 522.729L975.322 522.139ZM975.521 523.806L980.486 523.215L980.486 523.215L975.521 523.806ZM949.886 545.316L948.442 550.103L948.442 550.103L949.886 545.316ZM948.279 544.831L949.722 540.044L949.722 540.044L948.279 544.831ZM923.033 559.407L918.166 558.263L918.166 558.263L923.033 559.407ZM922.65 561.041L917.782 559.897L917.782 559.897L922.65 561.041ZM891.204 572.486L894.198 568.481L894.198 568.481L891.204 572.486ZM889.859 571.481L886.865 575.485L886.865 575.485L889.859 571.481ZM861.152 576.543L865.335 579.282L865.335 579.282L861.152 576.543ZM860.232 577.947L856.049 575.208L856.049 575.208L860.232 577.947ZM843 586.985L838 586.985L838 591.863L842.877 591.983L843 586.985ZM843 392V387L838 387L838 392L843 392ZM1016.52 391.876C1016.35 398.713 1018.97 405.628 1024.39 410.719L1031.24 403.431C1027.98 400.376 1026.41 396.244 1026.51 392.124L1016.52 391.876ZM1024.39 410.719L1025.61 411.869L1032.46 404.581L1031.24 403.431L1024.39 410.719ZM1025.61 411.868C1033.49 419.271 1031.19 432.324 1021.25 436.585L1025.2 445.776C1041.75 438.673 1045.59 416.918 1032.46 404.581L1025.61 411.868ZM1021.25 436.585L1019.71 437.247L1023.65 446.437L1025.2 445.776L1021.25 436.585ZM1019.71 437.247C1006.46 442.931 1000.75 458.616 1007.25 471.488L1016.18 466.982C1012.28 459.259 1015.7 449.848 1023.65 446.437L1019.71 437.247ZM1007.25 471.488L1008 472.986L1016.93 468.48L1016.18 466.982L1007.25 471.488ZM1008 472.986C1012.88 482.637 1006.25 494.115 995.455 494.722L996.016 504.706C1014.01 503.695 1025.05 484.564 1016.93 468.48L1008 472.986ZM995.455 494.722L993.78 494.816L994.341 504.8L996.016 504.706L995.455 494.722ZM993.78 494.816C979.383 495.625 968.654 508.412 970.357 522.729L980.287 521.548C979.266 512.958 985.703 505.286 994.341 504.8L993.78 494.816ZM970.357 522.729L970.556 524.396L980.486 523.215L980.287 521.548L970.357 522.729ZM970.556 524.396C971.832 535.131 961.679 543.65 951.329 540.529L948.442 550.103C965.691 555.305 982.614 541.106 980.486 523.215L970.556 524.396ZM951.329 540.529L949.722 540.044L946.835 549.618L948.442 550.103L951.329 540.529ZM949.722 540.044C935.918 535.881 921.463 544.227 918.166 558.263L927.901 560.55C929.879 552.128 938.552 547.12 946.835 549.618L949.722 540.044ZM918.166 558.263L917.782 559.897L927.517 562.184L927.901 560.55L918.166 558.263ZM917.782 559.897C915.311 570.421 902.856 574.954 894.198 568.481L888.21 576.49C902.64 587.279 923.398 579.723 927.517 562.184L917.782 559.897ZM894.198 568.481L892.853 567.476L886.865 575.485L888.21 576.49L894.198 568.481ZM892.853 567.476C881.305 558.843 864.867 561.741 856.969 573.804L865.335 579.282C870.074 572.044 879.937 570.305 886.865 575.485L892.853 567.476ZM856.969 573.804L856.049 575.208L864.415 580.686L865.335 579.282L856.969 573.804ZM856.049 575.208C853.01 579.85 848.07 582.108 843.123 581.986L842.877 591.983C851.044 592.184 859.353 588.417 864.415 580.686L856.049 575.208ZM838 392L838 586.985L848 586.985L848 392L838 392ZM1021.51 387L843 387V397L1021.51 397V387Z" fill="black" mask="url(#path-6-inside-2_4_593)"/>
<path fill-rule="evenodd" clip-rule="evenodd" d="M665 369C665 453.5 733.5 522 818 522C902.5 522 971 453.5 971 369C971 284.5 902.5 216 818 216C733.5 216 665 284.5 665 369ZM971 369H818V522C838.092 522 857.988 518.043 876.551 510.354C895.113 502.665 911.98 491.395 926.187 477.187C940.395 462.98 951.665 446.113 959.354 427.551C967.043 408.988 971 389.092 971 369Z" fill="white"/>
<path fill-rule="evenodd" clip-rule="evenodd" d="M843 545C927.5 545 996 476.5 996 392H843L843 545Z" fill="white"/>
<mask id="path-10-inside-3_4_593" fill="white">
<path d="M971 369C971 338.739 962.027 309.158 945.215 283.998C928.403 258.837 904.508 239.227 876.551 227.646C848.593 216.066 817.83 213.036 788.151 218.94C758.472 224.843 731.21 239.415 709.813 260.813C688.415 282.21 673.843 309.472 667.94 339.151C662.036 368.83 665.066 399.593 676.646 427.551C688.227 455.508 707.837 479.403 732.998 496.215C758.158 513.027 787.739 522 818 522L818 369H971Z"/>
</mask>
<path d="M971 369C971 338.739 962.027 309.158 945.215 283.998C928.403 258.837 904.508 239.227 876.551 227.646C848.593 216.066 817.83 213.036 788.151 218.94C758.472 224.843 731.21 239.415 709.813 260.813C688.415 282.21 673.843 309.472 667.94 339.151C662.036 368.83 665.066 399.593 676.646 427.551C688.227 455.508 707.837 479.403 732.998 496.215C758.158 513.027 787.739 522 818 522L818 369H971Z" fill="white" stroke="black" stroke-width="10" mask="url(#path-10-inside-3_4_593)"/>
<mask id="path-11-inside-4_4_593" fill="white">
<path d="M843 545C863.092 545 882.988 541.043 901.551 533.354C920.113 525.665 936.98 514.395 951.187 500.187C965.395 485.98 976.665 469.113 984.354 450.551C992.043 431.988 996 412.092 996 392L843 392L843 545Z"/>
</mask>
<path d="M843 545C863.092 545 882.988 541.043 901.551 533.354C920.113 525.665 936.98 514.395 951.187 500.187C965.395 485.98 976.665 469.113 984.354 450.551C992.043 431.988 996 412.092 996 392L843 392L843 545Z" fill="white" stroke="black" stroke-width="10" mask="url(#path-11-inside-4_4_593)"/>
<path fill-rule="evenodd" clip-rule="evenodd" d="M928.074 498.602L940.066 464.932L927.43 425.534L915.437 459.203L928.074 498.602ZM907.26 433.708L919.252 400.039L916.809 392.421H898.246L896.021 398.668L907.26 433.708ZM887.038 423.889L898.277 458.93L884.394 497.908L873.155 462.867L887.038 423.889ZM876.945 392.421L878.861 398.394L864.978 437.372L852.171 397.445L853.961 392.421H876.945ZM886.618 369.351H889.205L899.836 339.503L887.03 299.576L875.038 333.246L886.618 369.351ZM866.054 358.467L869.545 369.351H862.178L866.054 358.467ZM866.86 307.751L878.853 274.082L866.216 234.683L854.224 268.353L866.86 307.751ZM845.24 293.574L857.877 332.972L844.92 369.351H843.16L831.357 332.552L845.24 293.574ZM846.046 242.858L854.084 220.292C848.717 218.975 843.289 217.952 837.824 217.224L846.046 242.858ZM824.426 228.68L837.063 268.079L823.18 307.057L810.543 267.658L824.426 228.68ZM906.454 484.425L919.091 523.823L918.371 525.843C912.87 528.975 907.168 531.769 901.297 534.205C899.75 534.847 898.194 535.463 896.628 536.053L892.571 523.403L906.454 484.425ZM855.994 462.593L843.188 422.667L842.663 424.142L842.663 500.024L855.994 462.593ZM826.088 369.351L822.374 357.773L818.251 369.351H826.088ZM814.197 332.279L801.56 292.88L787.677 331.858L800.314 371.257L814.197 332.279ZM811.685 216L802.366 242.164L794.501 217.643C800.209 216.77 805.946 216.223 811.685 216ZM793.383 267.385L780.746 227.985L766.863 266.963L779.5 306.363L793.383 267.385ZM875.411 523.129L864.172 488.088L850.289 527.066L856.135 545.292C860.131 544.939 864.11 544.429 868.061 543.764L875.411 523.129ZM990.395 433.127C994.029 419.893 995.883 406.203 995.883 392.421H983.151L980.093 401.007L990.395 433.127ZM960.266 392.421L962.932 400.733L949.049 439.711L936.413 400.312L939.224 392.421H960.266ZM969.939 369.351H970.847C970.847 353.675 968.45 338.18 963.813 323.385L959.279 336.114L969.939 369.351ZM950.296 361.335L952.866 369.351H947.441L950.296 361.335ZM951.101 310.619L954.646 300.668C951.797 294.967 948.587 289.429 945.025 284.09C943.587 281.934 942.097 279.82 940.558 277.747L951.101 310.619ZM930.879 300.799L942.118 335.84L930.183 369.351H926.482L916.996 339.777L930.879 300.799ZM914.812 250.707L922.702 275.305L908.819 314.282L896.013 274.355L906.663 244.455C909.449 246.448 912.167 248.533 914.812 250.707ZM971.109 426.228L981.255 457.86C976.524 467.912 970.721 477.409 963.957 486.188L957.227 465.206L971.109 426.228ZM909.409 369.351L908.013 364.998L906.463 369.351H909.409ZM892.592 235.507L887.836 248.86L881.782 229.985C885.464 231.686 889.07 233.529 892.592 235.507ZM951.466 500.474L948.244 490.427L941.333 509.829C944.677 507.01 947.905 504.044 951.006 500.938C951.159 500.783 951.313 500.629 951.466 500.474ZM817.627 425.233V371.103L808.491 396.751L817.627 425.233ZM778.694 357.079L791.331 396.478L777.448 435.457L764.811 396.058L778.694 357.079ZM757.88 292.184L770.517 331.584L756.634 370.563L743.996 331.163L757.88 292.184ZM758.686 241.468L764.393 225.445C761.152 226.648 757.955 227.959 754.807 229.376L758.686 241.468ZM740.162 236.943L749.702 266.69L735.819 305.668L723.182 266.269L731.731 242.268C734.484 240.401 737.296 238.625 740.162 236.943ZM799.508 421.973L812.145 461.371L798.262 500.35L785.625 460.951L799.508 421.973ZM768.464 460.678L755.828 421.279L741.945 460.257L754.581 499.656L768.464 460.678ZM747.65 395.784L735.013 356.384L721.13 395.363L733.767 434.762L747.65 395.784ZM726.836 330.89L714.199 291.491L700.316 330.469L712.953 369.868L726.836 330.89ZM706.022 265.996L705.593 264.66C698.582 272.187 692.373 280.371 687.04 289.076L692.139 304.974L706.022 265.996ZM787.43 519.807L776.642 486.173L766.698 514.091C773.463 516.479 780.391 518.39 787.43 519.807ZM712.147 420.584L724.784 459.984L716.12 484.308C710.872 479.659 705.956 474.661 701.404 469.354L698.264 459.563L712.147 420.584ZM691.333 355.69L703.97 395.089L690.086 434.069L677.449 394.67L691.333 355.69ZM676.527 309.528L683.156 330.195L669.272 369.175L665 355.855C665.485 350.353 666.268 344.864 667.351 339.411C669.396 329.112 672.48 319.104 676.527 309.528ZM732.961 485.478L737.712 500.289C735.956 499.214 734.219 498.102 732.502 496.953C731.522 496.297 730.55 495.63 729.587 494.953L732.961 485.478ZM807.634 522.49C810.953 522.707 814.286 522.817 817.627 522.817V494.433L807.634 522.49Z" fill="black"/>
</svg>
